<svg width="42" height="48" viewBox="0 0 42 48" fill="none" xmlns="http://www.w3.org/2000/svg">
<path fill-rule="nonzero" clip-rule="nonzero" d="M15.6214 22.8633L16 22.339V21.6923V2H26V6H22V8H26V11H22V13H26V16H22V18H26V21.6923V22.339L26.3786 22.8633L32.2551 31H9.7448L15.6214 22.8633ZM8.3004 33H33.6996L38.5082 39.658C40.4187 42.3033 38.5285 46 35.2655 46H6.73453C3.47145 46 1.58131 42.3033 3.49181 39.658L8.3004 33ZM28 2V21.6923L40.1295 38.4871C42.9953 42.455 40.1601 48 35.2655 48H6.73453C1.83991 48 -0.995297 42.455 1.87045 38.4871L14 21.6923V2H12V0H14H16H26H28H30V2H28Z" fill="black"/>
</svg>
