<svg width="38" height="46" viewBox="0 0 38 46" fill="none" xmlns="http://www.w3.org/2000/svg">
<path fill-rule="nonzero" clip-rule="nonzero" d="M2 17C2 8.8232 9.4972 2 19 2C28.5028 2 36 8.8232 36 17C36 19.6268 35.2349 22.0985 33.8829 24.2526C33.2959 25.1878 32.687 26.0648 32.0635 26.9627C31.6291 27.5884 31.1876 28.2243 30.7415 28.8972C29.6896 30.4839 28.6916 32.1674 28.0134 34.0345L27.2993 36H27.114H20V23H18V36H10.886H10.7007L9.9866 34.0345C9.3084 32.1674 8.3104 30.4839 7.2585 28.8972C6.8125 28.2244 6.371 27.5887 5.9367 26.9631L5.9365 26.9627C5.313 26.0648 4.70414 25.1878 4.11712 24.2526C2.76508 22.0985 2 19.6268 2 17ZM8.8588 36.7873L8.1068 34.7174C7.5087 33.0709 6.612 31.5416 5.5915 30.0024C5.1999 29.4115 4.77581 28.7998 4.34478 28.178C3.69074 27.2344 3.02063 26.2677 2.42315 25.3158C0.88298 22.862 0 20.0245 0 17C0 7.50369 8.6206 0 19 0C29.3794 0 38 7.50369 38 17C38 20.0245 37.117 22.862 35.5769 25.3158C34.9794 26.2677 34.3093 27.2344 33.6553 28.1779L33.6552 28.178C33.2242 28.7998 32.8001 29.4115 32.4085 30.0024C31.388 31.5416 30.4913 33.0709 29.8932 34.7174L29.1412 36.7873C29.9959 37.5743 30.3784 38.8389 29.923 40.0534L28.423 44.0534C27.9839 45.2243 26.8645 46 25.614 46H12.386C11.1355 46 10.0161 45.2243 9.577 44.0534L8.077 40.0534C7.6216 38.8389 8.0041 37.5743 8.8588 36.7873ZM10.886 38H27.114C27.8122 38 28.2955 38.6974 28.0503 39.3511L26.5503 43.3511C26.404 43.7414 26.0308 44 25.614 44H12.386C11.9692 44 11.596 43.7414 11.4497 43.3511L9.9497 39.3511C9.7045 38.6974 10.1878 38 10.886 38ZM20 19V13H18V19H20ZM9.9473 16.2929L14.19 20.5355L12.7758 21.9497L8.5331 17.7071L9.9473 16.2929ZM24.0503 20.5355L28.2929 16.2929L29.7071 17.7071L25.4645 21.9497L24.0503 20.5355Z" fill="black"/>
</svg>
